<svg width="66" height="65" viewBox="0 0 66 65" fill="none" xmlns="http://www.w3.org/2000/svg">
<path d="M52.4264 13.2979C49.9434 10.7898 46.9859 8.80118 43.7263 7.44805C40.4667 6.09492 36.9703 5.40437 33.441 5.41667C18.6535 5.41667 6.60143 17.4687 6.60143 32.2562C6.60143 36.9958 7.84727 41.6 10.1764 45.6625L6.38477 59.5833L20.6035 55.8458C24.5306 57.9854 28.9452 59.1229 33.441 59.1229C48.2285 59.1229 60.2806 47.0708 60.2806 32.2833C60.2806 25.1062 57.491 18.3625 52.4264 13.2979ZM33.441 54.5729C29.4327 54.5729 25.5056 53.4896 22.066 51.4583L21.2535 50.9708L12.8035 53.1917L15.0514 44.9583L14.5098 44.1188C12.2828 40.5626 11.1004 36.4521 11.0973 32.2562C11.0973 19.9604 21.1181 9.93958 33.4139 9.93958C39.3723 9.93958 44.9785 12.2687 49.1764 16.4937C51.255 18.5628 52.9023 21.0239 54.0227 23.7343C55.1431 26.4447 55.7144 29.3505 55.7035 32.2833C55.7577 44.5792 45.7369 54.5729 33.441 54.5729ZM45.6827 37.8896C45.0056 37.5646 41.7014 35.9396 41.1056 35.6958C40.4827 35.4792 40.0494 35.3708 39.5889 36.0208C39.1285 36.6979 37.8556 38.2146 37.4764 38.6479C37.0973 39.1083 36.691 39.1625 36.0139 38.8104C35.3368 38.4854 33.1702 37.7542 30.6243 35.4792C28.6202 33.6917 27.2931 31.4979 26.8868 30.8208C26.5077 30.1437 26.8327 29.7917 27.1848 29.4396C27.4827 29.1417 27.8619 28.6542 28.1869 28.275C28.5119 27.8958 28.6473 27.5979 28.8639 27.1646C29.0806 26.7042 28.9723 26.325 28.8098 26C28.6473 25.675 27.2931 22.3708 26.7514 21.0167C26.2098 19.7167 25.641 19.8792 25.2348 19.8521H23.9348C23.4743 19.8521 22.7702 20.0146 22.1473 20.6917C21.5514 21.3687 19.8181 22.9937 19.8181 26.2979C19.8181 29.6021 22.2285 32.7979 22.5535 33.2313C22.8785 33.6917 27.2931 40.4625 34.0098 43.3604C35.6077 44.0646 36.8535 44.4708 37.8285 44.7688C39.4264 45.2833 40.8889 45.2021 42.0535 45.0396C43.3535 44.85 46.0348 43.4146 46.5764 41.8438C47.1452 40.2729 47.1452 38.9458 46.9556 38.6479C46.766 38.35 46.3598 38.2146 45.6827 37.8896Z" fill="#FAFAFA"/>
</svg>
