<svg width="60" height="60" viewBox="0 0 60 60" fill="none" xmlns="http://www.w3.org/2000/svg">
<path d="M47.625 12.2751C45.333 9.95996 42.603 8.12432 39.5941 6.87528C36.5852 5.62623 33.3578 4.9888 30.1 5.00015C16.45 5.00015 5.325 16.1251 5.325 29.7751C5.325 34.1501 6.475 38.4002 8.625 42.1502L5.125 55.0001L18.25 51.5501C21.875 53.5252 25.95 54.5751 30.1 54.5751C43.75 54.5751 54.875 43.4501 54.875 29.8001C54.875 23.1751 52.3 16.9501 47.625 12.2751ZM30.1 50.3751C26.4 50.3751 22.775 49.3751 19.6 47.5001L18.85 47.0501L11.05 49.1001L13.125 41.5001L12.625 40.7252C10.5694 37.4426 9.47785 33.6483 9.475 29.7751C9.475 18.4251 18.725 9.17515 30.075 9.17515C35.575 9.17515 40.75 11.3251 44.625 15.2251C46.5437 17.1351 48.0642 19.4068 49.0985 21.9087C50.1327 24.4106 50.6601 27.0929 50.65 29.8001C50.7 41.1501 41.45 50.3751 30.1 50.3751ZM41.4 34.9751C40.775 34.6751 37.725 33.1751 37.175 32.9501C36.6 32.7501 36.2 32.6501 35.775 33.2501C35.35 33.8751 34.175 35.2751 33.825 35.6751C33.475 36.1001 33.1 36.1501 32.475 35.8251C31.85 35.5251 29.85 34.8501 27.5 32.7501C25.65 31.1001 24.425 29.0751 24.05 28.4501C23.7 27.8251 24 27.5001 24.325 27.1751C24.6 26.9001 24.95 26.4501 25.25 26.1001C25.55 25.7501 25.675 25.4751 25.875 25.0751C26.075 24.6501 25.975 24.3001 25.825 24.0002C25.675 23.7001 24.425 20.6501 23.925 19.4001C23.425 18.2001 22.9 18.3501 22.525 18.3251H21.325C20.9 18.3251 20.25 18.4751 19.675 19.1001C19.125 19.7251 17.525 21.2251 17.525 24.2751C17.525 27.3251 19.75 30.2751 20.05 30.6751C20.35 31.1001 24.425 37.3501 30.625 40.0251C32.1 40.6751 33.25 41.0501 34.15 41.3251C35.625 41.8001 36.975 41.7251 38.05 41.5751C39.25 41.4001 41.725 40.0751 42.225 38.6251C42.75 37.1751 42.75 35.9501 42.575 35.6751C42.4 35.4001 42.025 35.2751 41.4 34.9751Z" fill="#FAFAFA"/>
</svg>
