<svg width="1512" height="1240" viewBox="0 0 1512 1240" fill="none" xmlns="http://www.w3.org/2000/svg">
<path d="M92.0908 243.403C96.5511 246.032 103.151 243.102 106.832 236.857C110.514 230.613 109.882 223.419 105.422 220.79C100.962 218.16 94.3617 221.091 90.6804 227.335C86.999 233.579 87.6305 240.773 92.0908 243.403Z" fill="#E8998D" fill-opacity="0.3" stroke="#C18076" stroke-opacity="0.3" stroke-width="6.7074" stroke-miterlimit="10"/>
<path d="M114.704 256.734C119.164 259.363 125.764 256.433 129.445 250.189C133.127 243.944 132.495 236.75 128.035 234.121C123.574 231.491 116.974 234.422 113.293 240.666C109.612 246.911 110.243 254.104 114.704 256.734Z" fill="#E8998D" fill-opacity="0.3" stroke="#C18076" stroke-opacity="0.3" stroke-width="6.7074" stroke-miterlimit="10"/>
<path d="M62.6075 256.493C67.0678 259.123 73.6678 256.192 77.3491 249.948C81.0304 243.704 80.399 236.51 75.9387 233.88C71.4784 231.251 64.8784 234.181 61.1971 240.426C57.5158 246.67 58.1472 253.864 62.6075 256.493Z" fill="#E8998D" fill-opacity="0.3" stroke="#C18076" stroke-opacity="0.3" stroke-width="6.7074" stroke-miterlimit="10"/>
<path d="M117.525 288.869C121.985 291.498 128.585 288.568 132.266 282.324C135.947 276.079 135.316 268.886 130.856 266.256C126.395 263.627 119.795 266.557 116.114 272.801C112.433 279.046 113.064 286.239 117.525 288.869Z" fill="#E8998D" fill-opacity="0.3" stroke="#C18076" stroke-opacity="0.3" stroke-width="6.7074" stroke-miterlimit="10"/>
<path d="M99.7572 278.394C98.4764 273.434 102.24 266.799 95.7794 262.99C89.3186 259.181 85.5096 265.642 80.3748 266.968C75.2399 268.294 65.4173 262.803 60.7875 270.656C58.1575 275.118 59.6412 280.863 64.1024 283.494C67.84 285.697 77.9077 287.279 80.5437 288.833C83.1797 290.387 89.4385 298.43 93.1761 300.634C97.6373 303.264 103.383 301.78 106.013 297.319C110.38 289.911 101.038 283.355 99.7572 278.394Z" fill="#E8998D" fill-opacity="0.3" stroke="#C18076" stroke-opacity="0.3" stroke-width="6.7074" stroke-miterlimit="10"/>
<path d="M188.091 36.8963C192.551 39.5258 199.151 36.5954 202.832 30.351C206.514 24.1066 205.882 16.9129 201.422 14.2834C196.962 11.6539 190.362 14.5843 186.68 20.8287C182.999 27.0731 183.631 34.2668 188.091 36.8963Z" fill="#E8998D" fill-opacity="0.3" stroke="#C18076" stroke-opacity="0.3" stroke-width="6.7074" stroke-miterlimit="10"/>
<path d="M210.704 50.2275C215.164 52.857 221.764 49.9265 225.445 43.6822C229.127 37.4378 228.495 30.2441 224.035 27.6146C219.574 24.9851 212.974 27.9155 209.293 34.1599C205.612 40.4043 206.243 47.598 210.704 50.2275Z" fill="#E8998D" fill-opacity="0.3" stroke="#C18076" stroke-opacity="0.3" stroke-width="6.7074" stroke-miterlimit="10"/>
<path d="M158.608 49.9869C163.068 52.6164 169.668 49.6859 173.349 43.4416C177.03 37.1972 176.399 30.0035 171.939 27.374C167.478 24.7445 160.878 27.6749 157.197 33.9193C153.516 40.1637 154.147 47.3574 158.608 49.9869Z" fill="#E8998D" fill-opacity="0.3" stroke="#C18076" stroke-opacity="0.3" stroke-width="6.7074" stroke-miterlimit="10"/>
<path d="M213.525 82.3626C217.985 84.9921 224.585 82.0617 228.266 75.8173C231.947 69.5729 231.316 62.3792 226.856 59.7497C222.395 57.1202 215.795 60.0507 212.114 66.295C208.433 72.5394 209.064 79.7331 213.525 82.3626Z" fill="#E8998D" fill-opacity="0.3" stroke="#C18076" stroke-opacity="0.3" stroke-width="6.7074" stroke-miterlimit="10"/>
<path d="M195.757 71.8881C194.476 66.9278 198.24 60.2924 191.779 56.4835C185.319 52.6746 181.51 59.1354 176.375 60.4614C171.24 61.7874 161.417 56.2969 156.788 64.15C154.157 68.6112 155.641 74.3571 160.102 76.9872C163.84 79.1906 173.908 80.7728 176.544 82.3268C179.18 83.8808 185.439 91.9238 189.176 94.1273C193.637 96.7573 199.383 95.2736 202.013 90.8124C206.38 83.4051 197.038 76.8484 195.757 71.8881Z" fill="#E8998D" fill-opacity="0.3" stroke="#C18076" stroke-opacity="0.3" stroke-width="6.7074" stroke-miterlimit="10"/>
<path d="M397.249 243.403C401.709 246.032 408.309 243.102 411.99 236.857C415.672 230.613 415.04 223.419 410.58 220.79C406.12 218.16 399.52 221.091 395.838 227.335C392.157 233.579 392.789 240.773 397.249 243.403Z" fill="#E8998D" fill-opacity="0.3" stroke="#C18076" stroke-opacity="0.3" stroke-width="6.7074" stroke-miterlimit="10"/>
<path d="M419.862 256.734C424.322 259.363 430.922 256.433 434.603 250.189C438.285 243.944 437.653 236.75 433.193 234.121C428.733 231.491 422.133 234.422 418.451 240.666C414.77 246.911 415.401 254.104 419.862 256.734Z" fill="#E8998D" fill-opacity="0.3" stroke="#C18076" stroke-opacity="0.3" stroke-width="6.7074" stroke-miterlimit="10"/>
<path d="M367.766 256.493C372.226 259.123 378.826 256.192 382.507 249.948C386.189 243.704 385.557 236.51 381.097 233.88C376.637 231.251 370.036 234.181 366.355 240.426C362.674 246.67 363.305 253.864 367.766 256.493Z" fill="#E8998D" fill-opacity="0.3" stroke="#C18076" stroke-opacity="0.3" stroke-width="6.7074" stroke-miterlimit="10"/>
<path d="M422.683 288.869C427.143 291.498 433.743 288.568 437.424 282.324C441.105 276.079 440.474 268.886 436.014 266.256C431.553 263.627 424.953 266.557 421.272 272.801C417.591 279.046 418.222 286.239 422.683 288.869Z" fill="#E8998D" fill-opacity="0.3" stroke="#C18076" stroke-opacity="0.3" stroke-width="6.7074" stroke-miterlimit="10"/>
<path d="M404.915 278.394C403.634 273.434 407.398 266.799 400.937 262.99C394.477 259.181 390.668 265.642 385.533 266.968C380.398 268.294 370.575 262.803 365.946 270.656C363.316 275.118 364.799 280.863 369.261 283.494C372.998 285.697 383.066 287.279 385.702 288.833C388.338 290.387 394.597 298.43 398.334 300.634C402.795 303.264 408.541 301.78 411.171 297.319C415.538 289.911 406.196 283.355 404.915 278.394Z" fill="#E8998D" fill-opacity="0.3" stroke="#C18076" stroke-opacity="0.3" stroke-width="6.7074" stroke-miterlimit="10"/>
<path d="M493.249 36.8963C497.709 39.5258 504.309 36.5954 507.99 30.351C511.672 24.1066 511.04 16.9129 506.58 14.2834C502.12 11.6539 495.52 14.5843 491.838 20.8287C488.157 27.0731 488.789 34.2668 493.249 36.8963Z" fill="#E8998D" fill-opacity="0.3" stroke="#C18076" stroke-opacity="0.3" stroke-width="6.7074" stroke-miterlimit="10"/>
<path d="M515.862 50.2275C520.322 52.857 526.922 49.9265 530.603 43.6822C534.285 37.4378 533.653 30.2441 529.193 27.6146C524.733 24.9851 518.133 27.9155 514.451 34.1599C510.77 40.4043 511.401 47.598 515.862 50.2275Z" fill="#E8998D" fill-opacity="0.3" stroke="#C18076" stroke-opacity="0.3" stroke-width="6.7074" stroke-miterlimit="10"/>
<path d="M463.766 49.9869C468.226 52.6164 474.826 49.6859 478.507 43.4416C482.189 37.1972 481.557 30.0035 477.097 27.374C472.637 24.7445 466.036 27.6749 462.355 33.9193C458.674 40.1637 459.305 47.3574 463.766 49.9869Z" fill="#E8998D" fill-opacity="0.3" stroke="#C18076" stroke-opacity="0.3" stroke-width="6.7074" stroke-miterlimit="10"/>
<path d="M518.683 82.3626C523.143 84.9921 529.743 82.0617 533.424 75.8173C537.105 69.5729 536.474 62.3792 532.014 59.7497C527.553 57.1202 520.953 60.0507 517.272 66.295C513.591 72.5394 514.222 79.7331 518.683 82.3626Z" fill="#E8998D" fill-opacity="0.3" stroke="#C18076" stroke-opacity="0.3" stroke-width="6.7074" stroke-miterlimit="10"/>
<path d="M500.915 71.8881C499.634 66.9278 503.398 60.2924 496.937 56.4835C490.477 52.6746 486.668 59.1354 481.533 60.4614C476.398 61.7874 466.575 56.2969 461.946 64.15C459.316 68.6112 460.799 74.3571 465.261 76.9872C468.998 79.1906 479.066 80.7728 481.702 82.3268C484.338 83.8808 490.597 91.9238 494.334 94.1273C498.795 96.7573 504.541 95.2736 507.171 90.8124C511.538 83.4051 502.196 76.8484 500.915 71.8881Z" fill="#E8998D" fill-opacity="0.3" stroke="#C18076" stroke-opacity="0.3" stroke-width="6.7074" stroke-miterlimit="10"/>
<path d="M702.407 243.403C706.867 246.032 713.467 243.102 717.149 236.857C720.83 230.613 720.198 223.419 715.738 220.79C711.278 218.16 704.678 221.091 700.997 227.335C697.315 233.579 697.947 240.773 702.407 243.403Z" fill="#E8998D" fill-opacity="0.3" stroke="#C18076" stroke-opacity="0.3" stroke-width="6.7074" stroke-miterlimit="10"/>
<path d="M725.02 256.734C729.48 259.363 736.08 256.433 739.761 250.189C743.443 243.944 742.811 236.75 738.351 234.121C733.891 231.491 727.291 234.422 723.609 240.666C719.928 246.911 720.56 254.104 725.02 256.734Z" fill="#E8998D" fill-opacity="0.3" stroke="#C18076" stroke-opacity="0.3" stroke-width="6.7074" stroke-miterlimit="10"/>
<path d="M672.924 256.493C677.384 259.123 683.984 256.192 687.665 249.948C691.347 243.704 690.715 236.51 686.255 233.88C681.795 231.251 675.195 234.181 671.513 240.426C667.832 246.67 668.463 253.864 672.924 256.493Z" fill="#E8998D" fill-opacity="0.3" stroke="#C18076" stroke-opacity="0.3" stroke-width="6.7074" stroke-miterlimit="10"/>
<path d="M727.841 288.869C732.301 291.498 738.901 288.568 742.582 282.324C746.264 276.079 745.632 268.886 741.172 266.256C736.712 263.627 730.112 266.557 726.43 272.801C722.749 279.046 723.38 286.239 727.841 288.869Z" fill="#E8998D" fill-opacity="0.3" stroke="#C18076" stroke-opacity="0.3" stroke-width="6.7074" stroke-miterlimit="10"/>
<path d="M710.073 278.394C708.793 273.434 712.556 266.799 706.096 262.99C699.635 259.181 695.826 265.642 690.691 266.968C685.556 268.294 675.733 262.803 671.104 270.656C668.474 275.118 669.957 280.863 674.419 283.494C678.156 285.697 688.224 287.279 690.86 288.833C693.496 290.387 699.755 298.43 703.492 300.634C707.954 303.264 713.699 301.78 716.33 297.319C720.696 289.911 711.354 283.355 710.073 278.394Z" fill="#E8998D" fill-opacity="0.3" stroke="#C18076" stroke-opacity="0.3" stroke-width="6.7074" stroke-miterlimit="10"/>
<path d="M798.407 36.8963C802.867 39.5258 809.467 36.5954 813.149 30.351C816.83 24.1066 816.198 16.9129 811.738 14.2834C807.278 11.6539 800.678 14.5843 796.997 20.8287C793.315 27.0731 793.947 34.2668 798.407 36.8963Z" fill="#E8998D" fill-opacity="0.3" stroke="#C18076" stroke-opacity="0.3" stroke-width="6.7074" stroke-miterlimit="10"/>
<path d="M821.02 50.2275C825.48 52.857 832.08 49.9265 835.761 43.6822C839.443 37.4378 838.811 30.2441 834.351 27.6146C829.891 24.9851 823.291 27.9155 819.609 34.1599C815.928 40.4043 816.56 47.598 821.02 50.2275Z" fill="#E8998D" fill-opacity="0.3" stroke="#C18076" stroke-opacity="0.3" stroke-width="6.7074" stroke-miterlimit="10"/>
<path d="M768.924 49.9869C773.384 52.6164 779.984 49.6859 783.665 43.4416C787.347 37.1972 786.715 30.0035 782.255 27.374C777.795 24.7445 771.195 27.6749 767.513 33.9193C763.832 40.1637 764.463 47.3574 768.924 49.9869Z" fill="#E8998D" fill-opacity="0.3" stroke="#C18076" stroke-opacity="0.3" stroke-width="6.7074" stroke-miterlimit="10"/>
<path d="M823.841 82.3626C828.301 84.9921 834.901 82.0617 838.582 75.8173C842.264 69.5729 841.632 62.3792 837.172 59.7497C832.712 57.1202 826.112 60.0507 822.43 66.295C818.749 72.5394 819.38 79.7331 823.841 82.3626Z" fill="#E8998D" fill-opacity="0.3" stroke="#C18076" stroke-opacity="0.3" stroke-width="6.7074" stroke-miterlimit="10"/>
<path d="M806.073 71.8881C804.793 66.9278 808.556 60.2924 802.096 56.4835C795.635 52.6746 791.826 59.1354 786.691 60.4614C781.556 61.7874 771.733 56.2969 767.104 64.15C764.474 68.6112 765.957 74.3571 770.419 76.9872C774.156 79.1906 784.224 80.7728 786.86 82.3268C789.496 83.8808 795.755 91.9238 799.492 94.1273C803.954 96.7573 809.699 95.2736 812.33 90.8124C816.696 83.4051 807.354 76.8484 806.073 71.8881Z" fill="#E8998D" fill-opacity="0.3" stroke="#C18076" stroke-opacity="0.3" stroke-width="6.7074" stroke-miterlimit="10"/>
<path d="M1007.57 243.403C1012.03 246.032 1018.63 243.102 1022.31 236.857C1025.99 230.613 1025.36 223.419 1020.9 220.79C1016.44 218.16 1009.84 221.091 1006.15 227.335C1002.47 233.579 1003.1 240.773 1007.57 243.403Z" fill="#E8998D" fill-opacity="0.3" stroke="#C18076" stroke-opacity="0.3" stroke-width="6.7074" stroke-miterlimit="10"/>
<path d="M1030.18 256.734C1034.64 259.363 1041.24 256.433 1044.92 250.189C1048.6 243.944 1047.97 236.75 1043.51 234.121C1039.05 231.491 1032.45 234.422 1028.77 240.666C1025.09 246.911 1025.72 254.104 1030.18 256.734Z" fill="#E8998D" fill-opacity="0.3" stroke="#C18076" stroke-opacity="0.3" stroke-width="6.7074" stroke-miterlimit="10"/>
<path d="M978.082 256.493C982.542 259.123 989.142 256.192 992.823 249.948C996.505 243.704 995.873 236.51 991.413 233.88C986.953 231.251 980.353 234.181 976.671 240.426C972.99 246.67 973.622 253.864 978.082 256.493Z" fill="#E8998D" fill-opacity="0.3" stroke="#C18076" stroke-opacity="0.3" stroke-width="6.7074" stroke-miterlimit="10"/>
<path d="M1033 288.869C1037.46 291.498 1044.06 288.568 1047.74 282.324C1051.42 276.079 1050.79 268.886 1046.33 266.256C1041.87 263.627 1035.27 266.557 1031.59 272.801C1027.91 279.046 1028.54 286.239 1033 288.869Z" fill="#E8998D" fill-opacity="0.3" stroke="#C18076" stroke-opacity="0.3" stroke-width="6.7074" stroke-miterlimit="10"/>
<path d="M1015.23 278.394C1013.95 273.434 1017.71 266.799 1011.25 262.99C1004.79 259.181 1000.98 265.642 995.849 266.968C990.714 268.294 980.892 262.803 976.262 270.656C973.632 275.118 975.116 280.863 979.577 283.494C983.314 285.697 993.382 287.279 996.018 288.833C998.654 290.387 1004.91 298.43 1008.65 300.634C1013.11 303.264 1018.86 301.78 1021.49 297.319C1025.85 289.911 1016.51 283.355 1015.23 278.394Z" fill="#E8998D" fill-opacity="0.3" stroke="#C18076" stroke-opacity="0.3" stroke-width="6.7074" stroke-miterlimit="10"/>
<path d="M1103.57 36.8963C1108.03 39.5258 1114.63 36.5954 1118.31 30.351C1121.99 24.1066 1121.36 16.9129 1116.9 14.2834C1112.44 11.6539 1105.84 14.5843 1102.15 20.8287C1098.47 27.0731 1099.1 34.2668 1103.57 36.8963Z" fill="#E8998D" fill-opacity="0.3" stroke="#C18076" stroke-opacity="0.3" stroke-width="6.7074" stroke-miterlimit="10"/>
<path d="M1126.18 50.2275C1130.64 52.857 1137.24 49.9265 1140.92 43.6822C1144.6 37.4378 1143.97 30.2441 1139.51 27.6146C1135.05 24.9851 1128.45 27.9155 1124.77 34.1599C1121.09 40.4043 1121.72 47.598 1126.18 50.2275Z" fill="#E8998D" fill-opacity="0.3" stroke="#C18076" stroke-opacity="0.3" stroke-width="6.7074" stroke-miterlimit="10"/>
<path d="M1074.08 49.9869C1078.54 52.6164 1085.14 49.6859 1088.82 43.4416C1092.5 37.1972 1091.87 30.0035 1087.41 27.374C1082.95 24.7445 1076.35 27.6749 1072.67 33.9193C1068.99 40.1637 1069.62 47.3574 1074.08 49.9869Z" fill="#E8998D" fill-opacity="0.3" stroke="#C18076" stroke-opacity="0.3" stroke-width="6.7074" stroke-miterlimit="10"/>
<path d="M1129 82.3626C1133.46 84.9921 1140.06 82.0617 1143.74 75.8173C1147.42 69.5729 1146.79 62.3792 1142.33 59.7497C1137.87 57.1202 1131.27 60.0507 1127.59 66.295C1123.91 72.5394 1124.54 79.7331 1129 82.3626Z" fill="#E8998D" fill-opacity="0.3" stroke="#C18076" stroke-opacity="0.3" stroke-width="6.7074" stroke-miterlimit="10"/>
<path d="M1111.23 71.8881C1109.95 66.9278 1113.71 60.2924 1107.25 56.4835C1100.79 52.6746 1096.98 59.1354 1091.85 60.4614C1086.71 61.7874 1076.89 56.2969 1072.26 64.15C1069.63 68.6112 1071.12 74.3571 1075.58 76.9872C1079.31 79.1906 1089.38 80.7728 1092.02 82.3268C1094.65 83.8808 1100.91 91.9238 1104.65 94.1273C1109.11 96.7573 1114.86 95.2736 1117.49 90.8124C1121.85 83.4051 1112.51 76.8484 1111.23 71.8881Z" fill="#E8998D" fill-opacity="0.3" stroke="#C18076" stroke-opacity="0.3" stroke-width="6.7074" stroke-miterlimit="10"/>
<path d="M1312.72 243.403C1317.18 246.032 1323.78 243.102 1327.46 236.857C1331.15 230.613 1330.51 223.419 1326.05 220.79C1321.59 218.16 1314.99 221.091 1311.31 227.335C1307.63 233.579 1308.26 240.773 1312.72 243.403Z" fill="#E8998D" fill-opacity="0.3" stroke="#C18076" stroke-opacity="0.3" stroke-width="6.7074" stroke-miterlimit="10"/>
<path d="M1335.34 256.734C1339.8 259.363 1346.4 256.433 1350.08 250.189C1353.76 243.944 1353.13 236.75 1348.67 234.121C1344.21 231.491 1337.61 234.422 1333.93 240.666C1330.24 246.911 1330.88 254.104 1335.34 256.734Z" fill="#E8998D" fill-opacity="0.3" stroke="#C18076" stroke-opacity="0.3" stroke-width="6.7074" stroke-miterlimit="10"/>
<path d="M1283.24 256.493C1287.7 259.123 1294.3 256.192 1297.98 249.948C1301.66 243.704 1301.03 236.51 1296.57 233.88C1292.11 231.251 1285.51 234.181 1281.83 240.426C1278.15 246.67 1278.78 253.864 1283.24 256.493Z" fill="#E8998D" fill-opacity="0.3" stroke="#C18076" stroke-opacity="0.3" stroke-width="6.7074" stroke-miterlimit="10"/>
<path d="M1338.16 288.869C1342.62 291.498 1349.22 288.568 1352.9 282.324C1356.58 276.079 1355.95 268.886 1351.49 266.256C1347.03 263.627 1340.43 266.557 1336.75 272.801C1333.07 279.046 1333.7 286.239 1338.16 288.869Z" fill="#E8998D" fill-opacity="0.3" stroke="#C18076" stroke-opacity="0.3" stroke-width="6.7074" stroke-miterlimit="10"/>
<path d="M1320.39 278.394C1319.11 273.434 1322.87 266.799 1316.41 262.99C1309.95 259.181 1306.14 265.642 1301.01 266.968C1295.87 268.294 1286.05 262.803 1281.42 270.656C1278.79 275.118 1280.27 280.863 1284.73 283.494C1288.47 285.697 1298.54 287.279 1301.18 288.833C1303.81 290.387 1310.07 298.43 1313.81 300.634C1318.27 303.264 1324.02 301.78 1326.65 297.319C1331.01 289.911 1321.67 283.355 1320.39 278.394Z" fill="#E8998D" fill-opacity="0.3" stroke="#C18076" stroke-opacity="0.3" stroke-width="6.7074" stroke-miterlimit="10"/>
<path d="M1408.72 36.8963C1413.18 39.5258 1419.78 36.5954 1423.46 30.351C1427.15 24.1066 1426.51 16.9129 1422.05 14.2834C1417.59 11.6539 1410.99 14.5843 1407.31 20.8287C1403.63 27.0731 1404.26 34.2668 1408.72 36.8963Z" fill="#E8998D" fill-opacity="0.3" stroke="#C18076" stroke-opacity="0.3" stroke-width="6.7074" stroke-miterlimit="10"/>
<path d="M1431.34 50.2275C1435.8 52.857 1442.4 49.9265 1446.08 43.6822C1449.76 37.4378 1449.13 30.2441 1444.67 27.6146C1440.21 24.9851 1433.61 27.9155 1429.93 34.1599C1426.24 40.4043 1426.88 47.598 1431.34 50.2275Z" fill="#E8998D" fill-opacity="0.3" stroke="#C18076" stroke-opacity="0.3" stroke-width="6.7074" stroke-miterlimit="10"/>
<path d="M1379.24 49.9869C1383.7 52.6164 1390.3 49.6859 1393.98 43.4416C1397.66 37.1972 1397.03 30.0035 1392.57 27.374C1388.11 24.7445 1381.51 27.6749 1377.83 33.9193C1374.15 40.1637 1374.78 47.3574 1379.24 49.9869Z" fill="#E8998D" fill-opacity="0.3" stroke="#C18076" stroke-opacity="0.3" stroke-width="6.7074" stroke-miterlimit="10"/>
<path d="M1434.16 82.3626C1438.62 84.9921 1445.22 82.0617 1448.9 75.8173C1452.58 69.5729 1451.95 62.3792 1447.49 59.7497C1443.03 57.1202 1436.43 60.0507 1432.75 66.295C1429.07 72.5394 1429.7 79.7331 1434.16 82.3626Z" fill="#E8998D" fill-opacity="0.3" stroke="#C18076" stroke-opacity="0.3" stroke-width="6.7074" stroke-miterlimit="10"/>
<path d="M1416.39 71.8881C1415.11 66.9278 1418.87 60.2924 1412.41 56.4835C1405.95 52.6746 1402.14 59.1354 1397.01 60.4614C1391.87 61.7874 1382.05 56.2969 1377.42 64.15C1374.79 68.6112 1376.27 74.3571 1380.73 76.9872C1384.47 79.1906 1394.54 80.7728 1397.18 82.3268C1399.81 83.8808 1406.07 91.9238 1409.81 94.1273C1414.27 96.7573 1420.02 95.2736 1422.65 90.8124C1427.01 83.4051 1417.67 76.8484 1416.39 71.8881Z" fill="#E8998D" fill-opacity="0.3" stroke="#C18076" stroke-opacity="0.3" stroke-width="6.7074" stroke-miterlimit="10"/>
<path d="M92.0908 706.415C96.5511 709.045 103.151 706.114 106.832 699.87C110.514 693.625 109.882 686.432 105.422 683.802C100.962 681.173 94.3617 684.103 90.6804 690.348C86.999 696.592 87.6305 703.786 92.0908 706.415Z" fill="#E8998D" fill-opacity="0.3" stroke="#C18076" stroke-opacity="0.3" stroke-width="6.7074" stroke-miterlimit="10"/>
<path d="M114.704 719.746C119.164 722.376 125.764 719.446 129.445 713.201C133.127 706.957 132.495 699.763 128.035 697.134C123.574 694.504 116.974 697.435 113.293 703.679C109.612 709.923 110.243 717.117 114.704 719.746Z" fill="#E8998D" fill-opacity="0.3" stroke="#C18076" stroke-opacity="0.3" stroke-width="6.7074" stroke-miterlimit="10"/>
<path d="M62.6075 719.506C67.0678 722.135 73.6678 719.205 77.3491 712.961C81.0304 706.716 80.399 699.522 75.9387 696.893C71.4784 694.263 64.8784 697.194 61.1971 703.438C57.5158 709.683 58.1472 716.876 62.6075 719.506Z" fill="#E8998D" fill-opacity="0.3" stroke="#C18076" stroke-opacity="0.3" stroke-width="6.7074" stroke-miterlimit="10"/>
<path d="M117.525 751.882C121.985 754.511 128.585 751.581 132.266 745.336C135.947 739.092 135.316 731.898 130.856 729.269C126.395 726.639 119.795 729.57 116.114 735.814C112.433 742.058 113.064 749.252 117.525 751.882Z" fill="#E8998D" fill-opacity="0.3" stroke="#C18076" stroke-opacity="0.3" stroke-width="6.7074" stroke-miterlimit="10"/>
<path d="M99.7572 741.407C98.4764 736.447 102.24 729.811 95.7794 726.002C89.3186 722.194 85.5096 728.654 80.3748 729.98C75.2399 731.306 65.4173 725.816 60.7875 733.669C58.1575 738.13 59.6412 743.876 64.1024 746.506C67.84 748.71 77.9077 750.292 80.5437 751.846C83.1797 753.4 89.4385 761.443 93.1761 763.646C97.6373 766.276 103.383 764.793 106.013 760.331C110.38 752.924 101.038 746.367 99.7572 741.407Z" fill="#E8998D" fill-opacity="0.3" stroke="#C18076" stroke-opacity="0.3" stroke-width="6.7074" stroke-miterlimit="10"/>
<path d="M188.091 499.909C192.551 502.538 199.151 499.608 202.832 493.364C206.514 487.119 205.882 479.925 201.422 477.296C196.962 474.666 190.362 477.597 186.68 483.841C182.999 490.086 183.631 497.279 188.091 499.909Z" fill="#E8998D" fill-opacity="0.3" stroke="#C18076" stroke-opacity="0.3" stroke-width="6.7074" stroke-miterlimit="10"/>
<path d="M210.704 513.24C215.164 515.87 221.764 512.939 225.445 506.695C229.127 500.45 228.495 493.257 224.035 490.627C219.574 487.998 212.974 490.928 209.293 497.172C205.612 503.417 206.243 510.611 210.704 513.24Z" fill="#E8998D" fill-opacity="0.3" stroke="#C18076" stroke-opacity="0.3" stroke-width="6.7074" stroke-miterlimit="10"/>
<path d="M158.608 512.999C163.068 515.629 169.668 512.699 173.349 506.454C177.03 500.21 176.399 493.016 171.939 490.387C167.478 487.757 160.878 490.687 157.197 496.932C153.516 503.176 154.147 510.37 158.608 512.999Z" fill="#E8998D" fill-opacity="0.3" stroke="#C18076" stroke-opacity="0.3" stroke-width="6.7074" stroke-miterlimit="10"/>
<path d="M213.525 545.375C217.985 548.005 224.585 545.074 228.266 538.83C231.947 532.585 231.316 525.392 226.856 522.762C222.395 520.133 215.795 523.063 212.114 529.308C208.433 535.552 209.064 542.746 213.525 545.375Z" fill="#E8998D" fill-opacity="0.3" stroke="#C18076" stroke-opacity="0.3" stroke-width="6.7074" stroke-miterlimit="10"/>
<path d="M195.757 534.901C194.476 529.94 198.24 523.305 191.779 519.496C185.319 515.687 181.51 522.148 176.375 523.474C171.24 524.8 161.417 519.309 156.788 527.163C154.157 531.624 155.641 537.37 160.102 540C163.84 542.203 173.908 543.785 176.544 545.339C179.18 546.893 185.439 554.936 189.176 557.14C193.637 559.77 199.383 558.286 202.013 553.825C206.38 546.418 197.038 539.861 195.757 534.901Z" fill="#E8998D" fill-opacity="0.3" stroke="#C18076" stroke-opacity="0.3" stroke-width="6.7074" stroke-miterlimit="10"/>
<path d="M397.249 706.415C401.709 709.045 408.309 706.114 411.99 699.87C415.672 693.625 415.04 686.432 410.58 683.802C406.12 681.173 399.52 684.103 395.838 690.348C392.157 696.592 392.789 703.786 397.249 706.415Z" fill="#E8998D" fill-opacity="0.3" stroke="#C18076" stroke-opacity="0.3" stroke-width="6.7074" stroke-miterlimit="10"/>
<path d="M419.862 719.746C424.322 722.376 430.922 719.446 434.603 713.201C438.285 706.957 437.653 699.763 433.193 697.134C428.733 694.504 422.133 697.435 418.451 703.679C414.77 709.923 415.401 717.117 419.862 719.746Z" fill="#E8998D" fill-opacity="0.3" stroke="#C18076" stroke-opacity="0.3" stroke-width="6.7074" stroke-miterlimit="10"/>
<path d="M367.766 719.506C372.226 722.135 378.826 719.205 382.507 712.961C386.189 706.716 385.557 699.522 381.097 696.893C376.637 694.263 370.036 697.194 366.355 703.438C362.674 709.683 363.305 716.876 367.766 719.506Z" fill="#E8998D" fill-opacity="0.3" stroke="#C18076" stroke-opacity="0.3" stroke-width="6.7074" stroke-miterlimit="10"/>
<path d="M422.683 751.882C427.143 754.511 433.743 751.581 437.424 745.336C441.105 739.092 440.474 731.898 436.014 729.269C431.553 726.639 424.953 729.57 421.272 735.814C417.591 742.058 418.222 749.252 422.683 751.882Z" fill="#E8998D" fill-opacity="0.3" stroke="#C18076" stroke-opacity="0.3" stroke-width="6.7074" stroke-miterlimit="10"/>
<path d="M404.915 741.407C403.634 736.447 407.398 729.811 400.937 726.002C394.477 722.194 390.668 728.654 385.533 729.98C380.398 731.306 370.575 725.816 365.946 733.669C363.316 738.13 364.799 743.876 369.261 746.506C372.998 748.71 383.066 750.292 385.702 751.846C388.338 753.4 394.597 761.443 398.334 763.646C402.795 766.276 408.541 764.793 411.171 760.331C415.538 752.924 406.196 746.367 404.915 741.407Z" fill="#E8998D" fill-opacity="0.3" stroke="#C18076" stroke-opacity="0.3" stroke-width="6.7074" stroke-miterlimit="10"/>
<path d="M493.249 499.909C497.709 502.538 504.309 499.608 507.99 493.364C511.672 487.119 511.04 479.925 506.58 477.296C502.12 474.666 495.52 477.597 491.838 483.841C488.157 490.086 488.789 497.279 493.249 499.909Z" fill="#E8998D" fill-opacity="0.3" stroke="#C18076" stroke-opacity="0.3" stroke-width="6.7074" stroke-miterlimit="10"/>
<path d="M515.862 513.24C520.322 515.87 526.922 512.939 530.603 506.695C534.285 500.45 533.653 493.257 529.193 490.627C524.733 487.998 518.133 490.928 514.451 497.172C510.77 503.417 511.401 510.611 515.862 513.24Z" fill="#E8998D" fill-opacity="0.3" stroke="#C18076" stroke-opacity="0.3" stroke-width="6.7074" stroke-miterlimit="10"/>
<path d="M463.766 512.999C468.226 515.629 474.826 512.699 478.507 506.454C482.189 500.21 481.557 493.016 477.097 490.387C472.637 487.757 466.036 490.687 462.355 496.932C458.674 503.176 459.305 510.37 463.766 512.999Z" fill="#E8998D" fill-opacity="0.3" stroke="#C18076" stroke-opacity="0.3" stroke-width="6.7074" stroke-miterlimit="10"/>
<path d="M518.683 545.375C523.143 548.005 529.743 545.074 533.424 538.83C537.105 532.585 536.474 525.392 532.014 522.762C527.553 520.133 520.953 523.063 517.272 529.308C513.591 535.552 514.222 542.746 518.683 545.375Z" fill="#E8998D" fill-opacity="0.3" stroke="#C18076" stroke-opacity="0.3" stroke-width="6.7074" stroke-miterlimit="10"/>
<path d="M500.915 534.901C499.634 529.94 503.398 523.305 496.937 519.496C490.477 515.687 486.668 522.148 481.533 523.474C476.398 524.8 466.575 519.309 461.946 527.163C459.316 531.624 460.799 537.37 465.261 540C468.998 542.203 479.066 543.785 481.702 545.339C484.338 546.893 490.597 554.936 494.334 557.14C498.795 559.77 504.541 558.286 507.171 553.825C511.538 546.418 502.196 539.861 500.915 534.901Z" fill="#E8998D" fill-opacity="0.3" stroke="#C18076" stroke-opacity="0.3" stroke-width="6.7074" stroke-miterlimit="10"/>
<path d="M702.407 706.415C706.867 709.045 713.467 706.114 717.149 699.87C720.83 693.625 720.198 686.432 715.738 683.802C711.278 681.173 704.678 684.103 700.997 690.348C697.315 696.592 697.947 703.786 702.407 706.415Z" fill="#E8998D" fill-opacity="0.3" stroke="#C18076" stroke-opacity="0.3" stroke-width="6.7074" stroke-miterlimit="10"/>
<path d="M725.02 719.746C729.48 722.376 736.08 719.446 739.761 713.201C743.443 706.957 742.811 699.763 738.351 697.134C733.891 694.504 727.291 697.435 723.609 703.679C719.928 709.923 720.56 717.117 725.02 719.746Z" fill="#E8998D" fill-opacity="0.3" stroke="#C18076" stroke-opacity="0.3" stroke-width="6.7074" stroke-miterlimit="10"/>
<path d="M672.924 719.506C677.384 722.135 683.984 719.205 687.665 712.961C691.347 706.716 690.715 699.522 686.255 696.893C681.795 694.263 675.195 697.194 671.513 703.438C667.832 709.683 668.463 716.876 672.924 719.506Z" fill="#E8998D" fill-opacity="0.3" stroke="#C18076" stroke-opacity="0.3" stroke-width="6.7074" stroke-miterlimit="10"/>
<path d="M727.841 751.882C732.301 754.511 738.901 751.581 742.582 745.336C746.264 739.092 745.632 731.898 741.172 729.269C736.712 726.639 730.112 729.57 726.43 735.814C722.749 742.058 723.38 749.252 727.841 751.882Z" fill="#E8998D" fill-opacity="0.3" stroke="#C18076" stroke-opacity="0.3" stroke-width="6.7074" stroke-miterlimit="10"/>
<path d="M710.073 741.407C708.793 736.447 712.556 729.811 706.096 726.002C699.635 722.194 695.826 728.654 690.691 729.98C685.556 731.306 675.733 725.816 671.104 733.669C668.474 738.13 669.957 743.876 674.419 746.506C678.156 748.71 688.224 750.292 690.86 751.846C693.496 753.4 699.755 761.443 703.492 763.646C707.954 766.276 713.699 764.793 716.33 760.331C720.696 752.924 711.354 746.367 710.073 741.407Z" fill="#E8998D" fill-opacity="0.3" stroke="#C18076" stroke-opacity="0.3" stroke-width="6.7074" stroke-miterlimit="10"/>
<path d="M798.407 499.909C802.867 502.538 809.467 499.608 813.149 493.364C816.83 487.119 816.198 479.925 811.738 477.296C807.278 474.666 800.678 477.597 796.997 483.841C793.315 490.086 793.947 497.279 798.407 499.909Z" fill="#E8998D" fill-opacity="0.3" stroke="#C18076" stroke-opacity="0.3" stroke-width="6.7074" stroke-miterlimit="10"/>
<path d="M821.02 513.24C825.48 515.87 832.08 512.939 835.761 506.695C839.443 500.45 838.811 493.257 834.351 490.627C829.891 487.998 823.291 490.928 819.609 497.172C815.928 503.417 816.56 510.611 821.02 513.24Z" fill="#E8998D" fill-opacity="0.3" stroke="#C18076" stroke-opacity="0.3" stroke-width="6.7074" stroke-miterlimit="10"/>
<path d="M768.924 512.999C773.384 515.629 779.984 512.699 783.665 506.454C787.347 500.21 786.715 493.016 782.255 490.387C777.795 487.757 771.195 490.687 767.513 496.932C763.832 503.176 764.463 510.37 768.924 512.999Z" fill="#E8998D" fill-opacity="0.3" stroke="#C18076" stroke-opacity="0.3" stroke-width="6.7074" stroke-miterlimit="10"/>
<path d="M823.841 545.375C828.301 548.005 834.901 545.074 838.582 538.83C842.264 532.585 841.632 525.392 837.172 522.762C832.712 520.133 826.112 523.063 822.43 529.308C818.749 535.552 819.38 542.746 823.841 545.375Z" fill="#E8998D" fill-opacity="0.3" stroke="#C18076" stroke-opacity="0.3" stroke-width="6.7074" stroke-miterlimit="10"/>
<path d="M806.073 534.901C804.793 529.94 808.556 523.305 802.096 519.496C795.635 515.687 791.826 522.148 786.691 523.474C781.556 524.8 771.733 519.309 767.104 527.163C764.474 531.624 765.957 537.37 770.419 540C774.156 542.203 784.224 543.785 786.86 545.339C789.496 546.893 795.755 554.936 799.492 557.14C803.954 559.77 809.699 558.286 812.33 553.825C816.696 546.418 807.354 539.861 806.073 534.901Z" fill="#E8998D" fill-opacity="0.3" stroke="#C18076" stroke-opacity="0.3" stroke-width="6.7074" stroke-miterlimit="10"/>
<path d="M1007.57 706.415C1012.03 709.045 1018.63 706.114 1022.31 699.87C1025.99 693.625 1025.36 686.432 1020.9 683.802C1016.44 681.173 1009.84 684.103 1006.15 690.348C1002.47 696.592 1003.1 703.786 1007.57 706.415Z" fill="#E8998D" fill-opacity="0.3" stroke="#C18076" stroke-opacity="0.3" stroke-width="6.7074" stroke-miterlimit="10"/>
<path d="M1030.18 719.746C1034.64 722.376 1041.24 719.446 1044.92 713.201C1048.6 706.957 1047.97 699.763 1043.51 697.134C1039.05 694.504 1032.45 697.435 1028.77 703.679C1025.09 709.923 1025.72 717.117 1030.18 719.746Z" fill="#E8998D" fill-opacity="0.3" stroke="#C18076" stroke-opacity="0.3" stroke-width="6.7074" stroke-miterlimit="10"/>
<path d="M978.082 719.506C982.542 722.135 989.142 719.205 992.823 712.961C996.505 706.716 995.873 699.522 991.413 696.893C986.953 694.263 980.353 697.194 976.671 703.438C972.99 709.683 973.622 716.876 978.082 719.506Z" fill="#E8998D" fill-opacity="0.3" stroke="#C18076" stroke-opacity="0.3" stroke-width="6.7074" stroke-miterlimit="10"/>
<path d="M1033 751.882C1037.46 754.511 1044.06 751.581 1047.74 745.336C1051.42 739.092 1050.79 731.898 1046.33 729.269C1041.87 726.639 1035.27 729.57 1031.59 735.814C1027.91 742.058 1028.54 749.252 1033 751.882Z" fill="#E8998D" fill-opacity="0.3" stroke="#C18076" stroke-opacity="0.3" stroke-width="6.7074" stroke-miterlimit="10"/>
<path d="M1015.23 741.407C1013.95 736.447 1017.71 729.811 1011.25 726.002C1004.79 722.194 1000.98 728.654 995.849 729.98C990.714 731.306 980.892 725.816 976.262 733.669C973.632 738.13 975.116 743.876 979.577 746.506C983.314 748.71 993.382 750.292 996.018 751.846C998.654 753.4 1004.91 761.443 1008.65 763.646C1013.11 766.276 1018.86 764.793 1021.49 760.331C1025.85 752.924 1016.51 746.367 1015.23 741.407Z" fill="#E8998D" fill-opacity="0.3" stroke="#C18076" stroke-opacity="0.3" stroke-width="6.7074" stroke-miterlimit="10"/>
<path d="M1103.57 499.909C1108.03 502.538 1114.63 499.608 1118.31 493.364C1121.99 487.119 1121.36 479.925 1116.9 477.296C1112.44 474.666 1105.84 477.597 1102.15 483.841C1098.47 490.086 1099.1 497.279 1103.57 499.909Z" fill="#E8998D" fill-opacity="0.3" stroke="#C18076" stroke-opacity="0.3" stroke-width="6.7074" stroke-miterlimit="10"/>
<path d="M1126.18 513.24C1130.64 515.87 1137.24 512.939 1140.92 506.695C1144.6 500.45 1143.97 493.257 1139.51 490.627C1135.05 487.998 1128.45 490.928 1124.77 497.172C1121.09 503.417 1121.72 510.611 1126.18 513.24Z" fill="#E8998D" fill-opacity="0.3" stroke="#C18076" stroke-opacity="0.3" stroke-width="6.7074" stroke-miterlimit="10"/>
<path d="M1074.08 512.999C1078.54 515.629 1085.14 512.699 1088.82 506.454C1092.5 500.21 1091.87 493.016 1087.41 490.387C1082.95 487.757 1076.35 490.687 1072.67 496.932C1068.99 503.176 1069.62 510.37 1074.08 512.999Z" fill="#E8998D" fill-opacity="0.3" stroke="#C18076" stroke-opacity="0.3" stroke-width="6.7074" stroke-miterlimit="10"/>
<path d="M1129 545.375C1133.46 548.005 1140.06 545.074 1143.74 538.83C1147.42 532.585 1146.79 525.392 1142.33 522.762C1137.87 520.133 1131.27 523.063 1127.59 529.308C1123.91 535.552 1124.54 542.746 1129 545.375Z" fill="#E8998D" fill-opacity="0.3" stroke="#C18076" stroke-opacity="0.3" stroke-width="6.7074" stroke-miterlimit="10"/>
<path d="M1111.23 534.901C1109.95 529.94 1113.71 523.305 1107.25 519.496C1100.79 515.687 1096.98 522.148 1091.85 523.474C1086.71 524.8 1076.89 519.309 1072.26 527.163C1069.63 531.624 1071.12 537.37 1075.58 540C1079.31 542.203 1089.38 543.785 1092.02 545.339C1094.65 546.893 1100.91 554.936 1104.65 557.14C1109.11 559.77 1114.86 558.286 1117.49 553.825C1121.85 546.418 1112.51 539.861 1111.23 534.901Z" fill="#E8998D" fill-opacity="0.3" stroke="#C18076" stroke-opacity="0.3" stroke-width="6.7074" stroke-miterlimit="10"/>
<path d="M1312.72 706.415C1317.18 709.045 1323.78 706.114 1327.46 699.87C1331.15 693.625 1330.51 686.432 1326.05 683.802C1321.59 681.173 1314.99 684.103 1311.31 690.348C1307.63 696.592 1308.26 703.786 1312.72 706.415Z" fill="#E8998D" fill-opacity="0.3" stroke="#C18076" stroke-opacity="0.3" stroke-width="6.7074" stroke-miterlimit="10"/>
<path d="M1335.34 719.746C1339.8 722.376 1346.4 719.446 1350.08 713.201C1353.76 706.957 1353.13 699.763 1348.67 697.134C1344.21 694.504 1337.61 697.435 1333.93 703.679C1330.24 709.923 1330.88 717.117 1335.34 719.746Z" fill="#E8998D" fill-opacity="0.3" stroke="#C18076" stroke-opacity="0.3" stroke-width="6.7074" stroke-miterlimit="10"/>
<path d="M1283.24 719.506C1287.7 722.135 1294.3 719.205 1297.98 712.961C1301.66 706.716 1301.03 699.522 1296.57 696.893C1292.11 694.263 1285.51 697.194 1281.83 703.438C1278.15 709.683 1278.78 716.876 1283.24 719.506Z" fill="#E8998D" fill-opacity="0.3" stroke="#C18076" stroke-opacity="0.3" stroke-width="6.7074" stroke-miterlimit="10"/>
<path d="M1338.16 751.882C1342.62 754.511 1349.22 751.581 1352.9 745.336C1356.58 739.092 1355.95 731.898 1351.49 729.269C1347.03 726.639 1340.43 729.57 1336.75 735.814C1333.07 742.058 1333.7 749.252 1338.16 751.882Z" fill="#E8998D" fill-opacity="0.3" stroke="#C18076" stroke-opacity="0.3" stroke-width="6.7074" stroke-miterlimit="10"/>
<path d="M1320.39 741.407C1319.11 736.447 1322.87 729.811 1316.41 726.002C1309.95 722.194 1306.14 728.654 1301.01 729.98C1295.87 731.306 1286.05 725.816 1281.42 733.669C1278.79 738.13 1280.27 743.876 1284.73 746.506C1288.47 748.71 1298.54 750.292 1301.18 751.846C1303.81 753.4 1310.07 761.443 1313.81 763.646C1318.27 766.276 1324.02 764.793 1326.65 760.331C1331.01 752.924 1321.67 746.367 1320.39 741.407Z" fill="#E8998D" fill-opacity="0.3" stroke="#C18076" stroke-opacity="0.3" stroke-width="6.7074" stroke-miterlimit="10"/>
<path d="M1408.72 499.909C1413.18 502.538 1419.78 499.608 1423.46 493.364C1427.15 487.119 1426.51 479.925 1422.05 477.296C1417.59 474.666 1410.99 477.597 1407.31 483.841C1403.63 490.086 1404.26 497.279 1408.72 499.909Z" fill="#E8998D" fill-opacity="0.3" stroke="#C18076" stroke-opacity="0.3" stroke-width="6.7074" stroke-miterlimit="10"/>
<path d="M1431.34 513.24C1435.8 515.87 1442.4 512.939 1446.08 506.695C1449.76 500.45 1449.13 493.257 1444.67 490.627C1440.21 487.998 1433.61 490.928 1429.93 497.172C1426.24 503.417 1426.88 510.611 1431.34 513.24Z" fill="#E8998D" fill-opacity="0.3" stroke="#C18076" stroke-opacity="0.3" stroke-width="6.7074" stroke-miterlimit="10"/>
<path d="M1379.24 512.999C1383.7 515.629 1390.3 512.699 1393.98 506.454C1397.66 500.21 1397.03 493.016 1392.57 490.387C1388.11 487.757 1381.51 490.687 1377.83 496.932C1374.15 503.176 1374.78 510.37 1379.24 512.999Z" fill="#E8998D" fill-opacity="0.3" stroke="#C18076" stroke-opacity="0.3" stroke-width="6.7074" stroke-miterlimit="10"/>
<path d="M1434.16 545.375C1438.62 548.005 1445.22 545.074 1448.9 538.83C1452.58 532.585 1451.95 525.392 1447.49 522.762C1443.03 520.133 1436.43 523.063 1432.75 529.308C1429.07 535.552 1429.7 542.746 1434.16 545.375Z" fill="#E8998D" fill-opacity="0.3" stroke="#C18076" stroke-opacity="0.3" stroke-width="6.7074" stroke-miterlimit="10"/>
<path d="M1416.39 534.901C1415.11 529.94 1418.87 523.305 1412.41 519.496C1405.95 515.687 1402.14 522.148 1397.01 523.474C1391.87 524.8 1382.05 519.309 1377.42 527.163C1374.79 531.624 1376.27 537.37 1380.73 540C1384.47 542.203 1394.54 543.785 1397.18 545.339C1399.81 546.893 1406.07 554.936 1409.81 557.14C1414.27 559.77 1420.02 558.286 1422.65 553.825C1427.01 546.418 1417.67 539.861 1416.39 534.901Z" fill="#E8998D" fill-opacity="0.3" stroke="#C18076" stroke-opacity="0.3" stroke-width="6.7074" stroke-miterlimit="10"/>
<path d="M92.0908 1169.43C96.5511 1172.06 103.151 1169.13 106.832 1162.88C110.514 1156.64 109.882 1149.44 105.422 1146.81C100.962 1144.19 94.3617 1147.12 90.6804 1153.36C86.999 1159.6 87.6305 1166.8 92.0908 1169.43Z" fill="#E8998D" fill-opacity="0.3" stroke="#C18076" stroke-opacity="0.3" stroke-width="6.7074" stroke-miterlimit="10"/>
<path d="M114.704 1182.76C119.164 1185.39 125.764 1182.46 129.445 1176.21C133.127 1169.97 132.495 1162.78 128.035 1160.15C123.574 1157.52 116.974 1160.45 113.293 1166.69C109.612 1172.94 110.243 1180.13 114.704 1182.76Z" fill="#E8998D" fill-opacity="0.3" stroke="#C18076" stroke-opacity="0.3" stroke-width="6.7074" stroke-miterlimit="10"/>
<path d="M62.6075 1182.52C67.0678 1185.15 73.6678 1182.22 77.3491 1175.97C81.0304 1169.73 80.399 1162.54 75.9387 1159.91C71.4784 1157.28 64.8784 1160.21 61.1971 1166.45C57.5158 1172.7 58.1472 1179.89 62.6075 1182.52Z" fill="#E8998D" fill-opacity="0.3" stroke="#C18076" stroke-opacity="0.3" stroke-width="6.7074" stroke-miterlimit="10"/>
<path d="M117.525 1214.89C121.985 1217.52 128.585 1214.59 132.266 1208.35C135.947 1202.1 135.316 1194.91 130.856 1192.28C126.395 1189.65 119.795 1192.58 116.114 1198.83C112.433 1205.07 113.064 1212.26 117.525 1214.89Z" fill="#E8998D" fill-opacity="0.3" stroke="#C18076" stroke-opacity="0.3" stroke-width="6.7074" stroke-miterlimit="10"/>
<path d="M99.7572 1204.42C98.4764 1199.46 102.24 1192.82 95.7794 1189.02C89.3186 1185.21 85.5096 1191.67 80.3748 1192.99C75.2399 1194.32 65.4173 1188.83 60.7875 1196.68C58.1575 1201.14 59.6412 1206.89 64.1024 1209.52C67.84 1211.72 77.9077 1213.3 80.5437 1214.86C83.1797 1216.41 89.4385 1224.46 93.1761 1226.66C97.6373 1229.29 103.383 1227.81 106.013 1223.34C110.38 1215.94 101.038 1209.38 99.7572 1204.42Z" fill="#E8998D" fill-opacity="0.3" stroke="#C18076" stroke-opacity="0.3" stroke-width="6.7074" stroke-miterlimit="10"/>
<path d="M188.091 962.921C192.551 965.551 199.151 962.62 202.832 956.376C206.514 950.132 205.882 942.938 201.422 940.309C196.962 937.679 190.362 940.609 186.68 946.854C182.999 953.098 183.631 960.292 188.091 962.921Z" fill="#E8998D" fill-opacity="0.3" stroke="#C18076" stroke-opacity="0.3" stroke-width="6.7074" stroke-miterlimit="10"/>
<path d="M210.704 976.253C215.164 978.882 221.764 975.952 225.445 969.707C229.127 963.463 228.495 956.269 224.035 953.64C219.574 951.01 212.974 953.941 209.293 960.185C205.612 966.429 206.243 973.623 210.704 976.253Z" fill="#E8998D" fill-opacity="0.3" stroke="#C18076" stroke-opacity="0.3" stroke-width="6.7074" stroke-miterlimit="10"/>
<path d="M158.608 976.012C163.068 978.642 169.668 975.711 173.349 969.467C177.03 963.222 176.399 956.029 171.939 953.399C167.478 950.77 160.878 953.7 157.197 959.944C153.516 966.189 154.147 973.383 158.608 976.012Z" fill="#E8998D" fill-opacity="0.3" stroke="#C18076" stroke-opacity="0.3" stroke-width="6.7074" stroke-miterlimit="10"/>
<path d="M213.525 1008.39C217.985 1011.02 224.585 1008.09 228.266 1001.84C231.947 995.598 231.316 988.404 226.856 985.775C222.395 983.145 215.795 986.076 212.114 992.32C208.433 998.565 209.064 1005.76 213.525 1008.39Z" fill="#E8998D" fill-opacity="0.3" stroke="#C18076" stroke-opacity="0.3" stroke-width="6.7074" stroke-miterlimit="10"/>
<path d="M195.757 997.913C194.476 992.953 198.24 986.318 191.779 982.509C185.319 978.7 181.51 985.161 176.375 986.487C171.24 987.812 161.417 982.322 156.788 990.175C154.157 994.636 155.641 1000.38 160.102 1003.01C163.84 1005.22 173.908 1006.8 176.544 1008.35C179.18 1009.91 185.439 1017.95 189.176 1020.15C193.637 1022.78 199.383 1021.3 202.013 1016.84C206.38 1009.43 197.038 1002.87 195.757 997.913Z" fill="#E8998D" fill-opacity="0.3" stroke="#C18076" stroke-opacity="0.3" stroke-width="6.7074" stroke-miterlimit="10"/>
<path d="M397.249 1169.43C401.709 1172.06 408.309 1169.13 411.99 1162.88C415.672 1156.64 415.04 1149.44 410.58 1146.81C406.12 1144.19 399.52 1147.12 395.838 1153.36C392.157 1159.6 392.789 1166.8 397.249 1169.43Z" fill="#E8998D" fill-opacity="0.3" stroke="#C18076" stroke-opacity="0.3" stroke-width="6.7074" stroke-miterlimit="10"/>
<path d="M419.862 1182.76C424.322 1185.39 430.922 1182.46 434.603 1176.21C438.285 1169.97 437.653 1162.78 433.193 1160.15C428.733 1157.52 422.133 1160.45 418.451 1166.69C414.77 1172.94 415.401 1180.13 419.862 1182.76Z" fill="#E8998D" fill-opacity="0.3" stroke="#C18076" stroke-opacity="0.3" stroke-width="6.7074" stroke-miterlimit="10"/>
<path d="M367.766 1182.52C372.226 1185.15 378.826 1182.22 382.507 1175.97C386.189 1169.73 385.557 1162.54 381.097 1159.91C376.637 1157.28 370.036 1160.21 366.355 1166.45C362.674 1172.7 363.305 1179.89 367.766 1182.52Z" fill="#E8998D" fill-opacity="0.3" stroke="#C18076" stroke-opacity="0.3" stroke-width="6.7074" stroke-miterlimit="10"/>
<path d="M422.683 1214.89C427.143 1217.52 433.743 1214.59 437.424 1208.35C441.105 1202.1 440.474 1194.91 436.014 1192.28C431.553 1189.65 424.953 1192.58 421.272 1198.83C417.591 1205.07 418.222 1212.26 422.683 1214.89Z" fill="#E8998D" fill-opacity="0.3" stroke="#C18076" stroke-opacity="0.3" stroke-width="6.7074" stroke-miterlimit="10"/>
<path d="M404.915 1204.42C403.634 1199.46 407.398 1192.82 400.937 1189.02C394.477 1185.21 390.668 1191.67 385.533 1192.99C380.398 1194.32 370.575 1188.83 365.946 1196.68C363.316 1201.14 364.799 1206.89 369.261 1209.52C372.998 1211.72 383.066 1213.3 385.702 1214.86C388.338 1216.41 394.597 1224.46 398.334 1226.66C402.795 1229.29 408.541 1227.81 411.171 1223.34C415.538 1215.94 406.196 1209.38 404.915 1204.42Z" fill="#E8998D" fill-opacity="0.3" stroke="#C18076" stroke-opacity="0.3" stroke-width="6.7074" stroke-miterlimit="10"/>
<path d="M493.249 962.921C497.709 965.551 504.309 962.62 507.99 956.376C511.672 950.132 511.04 942.938 506.58 940.309C502.12 937.679 495.52 940.609 491.838 946.854C488.157 953.098 488.789 960.292 493.249 962.921Z" fill="#E8998D" fill-opacity="0.3" stroke="#C18076" stroke-opacity="0.3" stroke-width="6.7074" stroke-miterlimit="10"/>
<path d="M515.862 976.253C520.322 978.882 526.922 975.952 530.603 969.707C534.285 963.463 533.653 956.269 529.193 953.64C524.733 951.01 518.133 953.941 514.451 960.185C510.77 966.429 511.401 973.623 515.862 976.253Z" fill="#E8998D" fill-opacity="0.3" stroke="#C18076" stroke-opacity="0.3" stroke-width="6.7074" stroke-miterlimit="10"/>
<path d="M463.766 976.012C468.226 978.642 474.826 975.711 478.507 969.467C482.189 963.222 481.557 956.029 477.097 953.399C472.637 950.77 466.036 953.7 462.355 959.944C458.674 966.189 459.305 973.383 463.766 976.012Z" fill="#E8998D" fill-opacity="0.3" stroke="#C18076" stroke-opacity="0.3" stroke-width="6.7074" stroke-miterlimit="10"/>
<path d="M518.683 1008.39C523.143 1011.02 529.743 1008.09 533.424 1001.84C537.105 995.598 536.474 988.404 532.014 985.775C527.553 983.145 520.953 986.076 517.272 992.32C513.591 998.565 514.222 1005.76 518.683 1008.39Z" fill="#E8998D" fill-opacity="0.3" stroke="#C18076" stroke-opacity="0.3" stroke-width="6.7074" stroke-miterlimit="10"/>
<path d="M500.915 997.913C499.634 992.953 503.398 986.318 496.937 982.509C490.477 978.7 486.668 985.161 481.533 986.487C476.398 987.812 466.575 982.322 461.946 990.175C459.316 994.636 460.799 1000.38 465.261 1003.01C468.998 1005.22 479.066 1006.8 481.702 1008.35C484.338 1009.91 490.597 1017.95 494.334 1020.15C498.795 1022.78 504.541 1021.3 507.171 1016.84C511.538 1009.43 502.196 1002.87 500.915 997.913Z" fill="#E8998D" fill-opacity="0.3" stroke="#C18076" stroke-opacity="0.3" stroke-width="6.7074" stroke-miterlimit="10"/>
<path d="M702.407 1169.43C706.867 1172.06 713.467 1169.13 717.149 1162.88C720.83 1156.64 720.198 1149.44 715.738 1146.81C711.278 1144.19 704.678 1147.12 700.997 1153.36C697.315 1159.6 697.947 1166.8 702.407 1169.43Z" fill="#E8998D" fill-opacity="0.3" stroke="#C18076" stroke-opacity="0.3" stroke-width="6.7074" stroke-miterlimit="10"/>
<path d="M725.02 1182.76C729.48 1185.39 736.08 1182.46 739.761 1176.21C743.443 1169.97 742.811 1162.78 738.351 1160.15C733.891 1157.52 727.291 1160.45 723.609 1166.69C719.928 1172.94 720.56 1180.13 725.02 1182.76Z" fill="#E8998D" fill-opacity="0.3" stroke="#C18076" stroke-opacity="0.3" stroke-width="6.7074" stroke-miterlimit="10"/>
<path d="M672.924 1182.52C677.384 1185.15 683.984 1182.22 687.665 1175.97C691.347 1169.73 690.715 1162.54 686.255 1159.91C681.795 1157.28 675.195 1160.21 671.513 1166.45C667.832 1172.7 668.463 1179.89 672.924 1182.52Z" fill="#E8998D" fill-opacity="0.3" stroke="#C18076" stroke-opacity="0.3" stroke-width="6.7074" stroke-miterlimit="10"/>
<path d="M727.841 1214.89C732.301 1217.52 738.901 1214.59 742.582 1208.35C746.264 1202.1 745.632 1194.91 741.172 1192.28C736.712 1189.65 730.112 1192.58 726.43 1198.83C722.749 1205.07 723.38 1212.26 727.841 1214.89Z" fill="#E8998D" fill-opacity="0.3" stroke="#C18076" stroke-opacity="0.3" stroke-width="6.7074" stroke-miterlimit="10"/>
<path d="M710.073 1204.42C708.793 1199.46 712.556 1192.82 706.096 1189.02C699.635 1185.21 695.826 1191.67 690.691 1192.99C685.556 1194.32 675.733 1188.83 671.104 1196.68C668.474 1201.14 669.957 1206.89 674.419 1209.52C678.156 1211.72 688.224 1213.3 690.86 1214.86C693.496 1216.41 699.755 1224.46 703.492 1226.66C707.954 1229.29 713.699 1227.81 716.33 1223.34C720.696 1215.94 711.354 1209.38 710.073 1204.42Z" fill="#E8998D" fill-opacity="0.3" stroke="#C18076" stroke-opacity="0.3" stroke-width="6.7074" stroke-miterlimit="10"/>
<path d="M798.407 962.921C802.867 965.551 809.467 962.62 813.149 956.376C816.83 950.132 816.198 942.938 811.738 940.309C807.278 937.679 800.678 940.609 796.997 946.854C793.315 953.098 793.947 960.292 798.407 962.921Z" fill="#E8998D" fill-opacity="0.3" stroke="#C18076" stroke-opacity="0.3" stroke-width="6.7074" stroke-miterlimit="10"/>
<path d="M821.02 976.253C825.48 978.882 832.08 975.952 835.761 969.707C839.443 963.463 838.811 956.269 834.351 953.64C829.891 951.01 823.291 953.941 819.609 960.185C815.928 966.429 816.56 973.623 821.02 976.253Z" fill="#E8998D" fill-opacity="0.3" stroke="#C18076" stroke-opacity="0.3" stroke-width="6.7074" stroke-miterlimit="10"/>
<path d="M768.924 976.012C773.384 978.642 779.984 975.711 783.665 969.467C787.347 963.222 786.715 956.029 782.255 953.399C777.795 950.77 771.195 953.7 767.513 959.944C763.832 966.189 764.463 973.383 768.924 976.012Z" fill="#E8998D" fill-opacity="0.3" stroke="#C18076" stroke-opacity="0.3" stroke-width="6.7074" stroke-miterlimit="10"/>
<path d="M823.841 1008.39C828.301 1011.02 834.901 1008.09 838.582 1001.84C842.264 995.598 841.632 988.404 837.172 985.775C832.712 983.145 826.112 986.076 822.43 992.32C818.749 998.565 819.38 1005.76 823.841 1008.39Z" fill="#E8998D" fill-opacity="0.3" stroke="#C18076" stroke-opacity="0.3" stroke-width="6.7074" stroke-miterlimit="10"/>
<path d="M806.073 997.913C804.793 992.953 808.556 986.318 802.096 982.509C795.635 978.7 791.826 985.161 786.691 986.487C781.556 987.812 771.733 982.322 767.104 990.175C764.474 994.636 765.957 1000.38 770.419 1003.01C774.156 1005.22 784.224 1006.8 786.86 1008.35C789.496 1009.91 795.755 1017.95 799.492 1020.15C803.954 1022.78 809.699 1021.3 812.33 1016.84C816.696 1009.43 807.354 1002.87 806.073 997.913Z" fill="#E8998D" fill-opacity="0.3" stroke="#C18076" stroke-opacity="0.3" stroke-width="6.7074" stroke-miterlimit="10"/>
<path d="M1007.57 1169.43C1012.03 1172.06 1018.63 1169.13 1022.31 1162.88C1025.99 1156.64 1025.36 1149.44 1020.9 1146.81C1016.44 1144.19 1009.84 1147.12 1006.15 1153.36C1002.47 1159.6 1003.1 1166.8 1007.57 1169.43Z" fill="#E8998D" fill-opacity="0.3" stroke="#C18076" stroke-opacity="0.3" stroke-width="6.7074" stroke-miterlimit="10"/>
<path d="M1030.18 1182.76C1034.64 1185.39 1041.24 1182.46 1044.92 1176.21C1048.6 1169.97 1047.97 1162.78 1043.51 1160.15C1039.05 1157.52 1032.45 1160.45 1028.77 1166.69C1025.09 1172.94 1025.72 1180.13 1030.18 1182.76Z" fill="#E8998D" fill-opacity="0.3" stroke="#C18076" stroke-opacity="0.3" stroke-width="6.7074" stroke-miterlimit="10"/>
<path d="M978.082 1182.52C982.542 1185.15 989.142 1182.22 992.823 1175.97C996.505 1169.73 995.873 1162.54 991.413 1159.91C986.953 1157.28 980.353 1160.21 976.671 1166.45C972.99 1172.7 973.622 1179.89 978.082 1182.52Z" fill="#E8998D" fill-opacity="0.3" stroke="#C18076" stroke-opacity="0.3" stroke-width="6.7074" stroke-miterlimit="10"/>
<path d="M1033 1214.89C1037.46 1217.52 1044.06 1214.59 1047.74 1208.35C1051.42 1202.1 1050.79 1194.91 1046.33 1192.28C1041.87 1189.65 1035.27 1192.58 1031.59 1198.83C1027.91 1205.07 1028.54 1212.26 1033 1214.89Z" fill="#E8998D" fill-opacity="0.3" stroke="#C18076" stroke-opacity="0.3" stroke-width="6.7074" stroke-miterlimit="10"/>
<path d="M1015.23 1204.42C1013.95 1199.46 1017.71 1192.82 1011.25 1189.02C1004.79 1185.21 1000.98 1191.67 995.849 1192.99C990.714 1194.32 980.892 1188.83 976.262 1196.68C973.632 1201.14 975.116 1206.89 979.577 1209.52C983.314 1211.72 993.382 1213.3 996.018 1214.86C998.654 1216.41 1004.91 1224.46 1008.65 1226.66C1013.11 1229.29 1018.86 1227.81 1021.49 1223.34C1025.85 1215.94 1016.51 1209.38 1015.23 1204.42Z" fill="#E8998D" fill-opacity="0.3" stroke="#C18076" stroke-opacity="0.3" stroke-width="6.7074" stroke-miterlimit="10"/>
<path d="M1103.57 962.921C1108.03 965.551 1114.63 962.62 1118.31 956.376C1121.99 950.132 1121.36 942.938 1116.9 940.309C1112.44 937.679 1105.84 940.609 1102.15 946.854C1098.47 953.098 1099.1 960.292 1103.57 962.921Z" fill="#E8998D" fill-opacity="0.3" stroke="#C18076" stroke-opacity="0.3" stroke-width="6.7074" stroke-miterlimit="10"/>
<path d="M1126.18 976.253C1130.64 978.882 1137.24 975.952 1140.92 969.707C1144.6 963.463 1143.97 956.269 1139.51 953.64C1135.05 951.01 1128.45 953.941 1124.77 960.185C1121.09 966.429 1121.72 973.623 1126.18 976.253Z" fill="#E8998D" fill-opacity="0.3" stroke="#C18076" stroke-opacity="0.3" stroke-width="6.7074" stroke-miterlimit="10"/>
<path d="M1074.08 976.012C1078.54 978.642 1085.14 975.711 1088.82 969.467C1092.5 963.222 1091.87 956.029 1087.41 953.399C1082.95 950.77 1076.35 953.7 1072.67 959.944C1068.99 966.189 1069.62 973.383 1074.08 976.012Z" fill="#E8998D" fill-opacity="0.3" stroke="#C18076" stroke-opacity="0.3" stroke-width="6.7074" stroke-miterlimit="10"/>
<path d="M1129 1008.39C1133.46 1011.02 1140.06 1008.09 1143.74 1001.84C1147.42 995.598 1146.79 988.404 1142.33 985.775C1137.87 983.145 1131.27 986.076 1127.59 992.32C1123.91 998.565 1124.54 1005.76 1129 1008.39Z" fill="#E8998D" fill-opacity="0.3" stroke="#C18076" stroke-opacity="0.3" stroke-width="6.7074" stroke-miterlimit="10"/>
<path d="M1111.23 997.913C1109.95 992.953 1113.71 986.318 1107.25 982.509C1100.79 978.7 1096.98 985.161 1091.85 986.487C1086.71 987.812 1076.89 982.322 1072.26 990.175C1069.63 994.636 1071.12 1000.38 1075.58 1003.01C1079.31 1005.22 1089.38 1006.8 1092.02 1008.35C1094.65 1009.91 1100.91 1017.95 1104.65 1020.15C1109.11 1022.78 1114.86 1021.3 1117.49 1016.84C1121.85 1009.43 1112.51 1002.87 1111.23 997.913Z" fill="#E8998D" fill-opacity="0.3" stroke="#C18076" stroke-opacity="0.3" stroke-width="6.7074" stroke-miterlimit="10"/>
<path d="M1312.72 1169.43C1317.18 1172.06 1323.78 1169.13 1327.46 1162.88C1331.15 1156.64 1330.51 1149.44 1326.05 1146.81C1321.59 1144.19 1314.99 1147.12 1311.31 1153.36C1307.63 1159.6 1308.26 1166.8 1312.72 1169.43Z" fill="#E8998D" fill-opacity="0.3" stroke="#C18076" stroke-opacity="0.3" stroke-width="6.7074" stroke-miterlimit="10"/>
<path d="M1335.34 1182.76C1339.8 1185.39 1346.4 1182.46 1350.08 1176.21C1353.76 1169.97 1353.13 1162.78 1348.67 1160.15C1344.21 1157.52 1337.61 1160.45 1333.93 1166.69C1330.24 1172.94 1330.88 1180.13 1335.34 1182.76Z" fill="#E8998D" fill-opacity="0.3" stroke="#C18076" stroke-opacity="0.3" stroke-width="6.7074" stroke-miterlimit="10"/>
<path d="M1283.24 1182.52C1287.7 1185.15 1294.3 1182.22 1297.98 1175.97C1301.66 1169.73 1301.03 1162.54 1296.57 1159.91C1292.11 1157.28 1285.51 1160.21 1281.83 1166.45C1278.15 1172.7 1278.78 1179.89 1283.24 1182.52Z" fill="#E8998D" fill-opacity="0.3" stroke="#C18076" stroke-opacity="0.3" stroke-width="6.7074" stroke-miterlimit="10"/>
<path d="M1338.16 1214.89C1342.62 1217.52 1349.22 1214.59 1352.9 1208.35C1356.58 1202.1 1355.95 1194.91 1351.49 1192.28C1347.03 1189.65 1340.43 1192.58 1336.75 1198.83C1333.07 1205.07 1333.7 1212.26 1338.16 1214.89Z" fill="#E8998D" fill-opacity="0.3" stroke="#C18076" stroke-opacity="0.3" stroke-width="6.7074" stroke-miterlimit="10"/>
<path d="M1320.39 1204.42C1319.11 1199.46 1322.87 1192.82 1316.41 1189.02C1309.95 1185.21 1306.14 1191.67 1301.01 1192.99C1295.87 1194.32 1286.05 1188.83 1281.42 1196.68C1278.79 1201.14 1280.27 1206.89 1284.73 1209.52C1288.47 1211.72 1298.54 1213.3 1301.18 1214.86C1303.81 1216.41 1310.07 1224.46 1313.81 1226.66C1318.27 1229.29 1324.02 1227.81 1326.65 1223.34C1331.01 1215.94 1321.67 1209.38 1320.39 1204.42Z" fill="#E8998D" fill-opacity="0.3" stroke="#C18076" stroke-opacity="0.3" stroke-width="6.7074" stroke-miterlimit="10"/>
<path d="M1408.72 962.921C1413.18 965.551 1419.78 962.62 1423.46 956.376C1427.15 950.132 1426.51 942.938 1422.05 940.309C1417.59 937.679 1410.99 940.609 1407.31 946.854C1403.63 953.098 1404.26 960.292 1408.72 962.921Z" fill="#E8998D" fill-opacity="0.3" stroke="#C18076" stroke-opacity="0.3" stroke-width="6.7074" stroke-miterlimit="10"/>
<path d="M1431.34 976.253C1435.8 978.882 1442.4 975.952 1446.08 969.707C1449.76 963.463 1449.13 956.269 1444.67 953.64C1440.21 951.01 1433.61 953.941 1429.93 960.185C1426.24 966.429 1426.88 973.623 1431.34 976.253Z" fill="#E8998D" fill-opacity="0.3" stroke="#C18076" stroke-opacity="0.3" stroke-width="6.7074" stroke-miterlimit="10"/>
<path d="M1379.24 976.012C1383.7 978.642 1390.3 975.711 1393.98 969.467C1397.66 963.222 1397.03 956.029 1392.57 953.399C1388.11 950.77 1381.51 953.7 1377.83 959.944C1374.15 966.189 1374.78 973.383 1379.24 976.012Z" fill="#E8998D" fill-opacity="0.3" stroke="#C18076" stroke-opacity="0.3" stroke-width="6.7074" stroke-miterlimit="10"/>
<path d="M1434.16 1008.39C1438.62 1011.02 1445.22 1008.09 1448.9 1001.84C1452.58 995.598 1451.95 988.404 1447.49 985.775C1443.03 983.145 1436.43 986.076 1432.75 992.32C1429.07 998.565 1429.7 1005.76 1434.16 1008.39Z" fill="#E8998D" fill-opacity="0.3" stroke="#C18076" stroke-opacity="0.3" stroke-width="6.7074" stroke-miterlimit="10"/>
<path d="M1416.39 997.913C1415.11 992.953 1418.87 986.318 1412.41 982.509C1405.95 978.7 1402.14 985.161 1397.01 986.487C1391.87 987.812 1382.05 982.322 1377.42 990.175C1374.79 994.636 1376.27 1000.38 1380.73 1003.01C1384.47 1005.22 1394.54 1006.8 1397.18 1008.35C1399.81 1009.91 1406.07 1017.95 1409.81 1020.15C1414.27 1022.78 1420.02 1021.3 1422.65 1016.84C1427.01 1009.43 1417.67 1002.87 1416.39 997.913Z" fill="#E8998D" fill-opacity="0.3" stroke="#C18076" stroke-opacity="0.3" stroke-width="6.7074" stroke-miterlimit="10"/>
</svg>
