<svg width="33" height="32" viewBox="0 0 33 32" fill="none" xmlns="http://www.w3.org/2000/svg">
<path d="M31.2374 1.53814L24.7375 0.0381751C24.0313 -0.124322 23.3063 0.244421 23.0188 0.906907L20.0189 7.90676C19.7564 8.51925 19.9314 9.23798 20.4501 9.65672L24.2375 12.7567C21.9876 17.5503 18.0564 21.5377 13.1628 23.8314L10.0628 20.044C9.63786 19.5253 8.92537 19.3503 8.31289 19.6128L1.31303 22.6127C0.644298 22.9064 0.275556 23.6314 0.438053 24.3377L1.93802 30.8375C2.09427 31.5125 2.69425 32 3.40049 32C19.4064 32 32.3999 19.0315 32.3999 3.00061C32.3999 2.30063 31.9186 1.69439 31.2374 1.53814Z" fill="#1F1F1F"/>
</svg>
